<?xml version="1.0" encoding="UTF-8"?><svg id="Layer_1" xmlns="http://www.w3.org/2000/svg" viewBox="0 0 300 300"><defs><style>.cls-1{fill:#f9a11b;}</style></defs><path class="cls-1" d="M42.86,149.63c0-59.4,48.15-107.55,107.55-107.55s107.55,48.15,107.55,107.55c0,8.28-.94,16.56-2.83,24.62-3.03,12.94-8.5,25.28-16.03,36.24s-16.82,20.22-27.59,27.67c-10.93,7.56-23.25,13.06-36.18,16.13-6.68,1.59-13.52,2.52-20.38,2.81-8.1.34-16.44-.16-23.71-4.08-2.87-1.55-5.56-3.45-7.98-5.64,0,0,0,0-.01-.01-1.4-1.34-2.62-2.86-3.89-4.32s-2.49-3.04-3.51-4.71c-1.62-2.64-2.78-5.53-3.77-8.45-1.5-4.43-2.58-8.9-2.58-13.61,0-13.39,6.43-25.28,16.38-32.75,4.7,6.66,7.46,14.79,7.46,23.56,0,5.39-1.04,10.54-2.94,15.25,14.13-6.34,23.98-20.53,23.98-37.03,0-2.26-.19-4.47-.54-6.63,20.37-11.44,34.14-33.24,34.14-58.27,0-2.95-.19-5.86-.57-8.71-2.85-.37-5.76-.57-8.71-.57-25.03,0-46.84,13.77-58.28,34.15-2.15-.35-4.36-.54-6.61-.54-16.75,0-31.12,10.15-37.31,24.63,4.89-2.07,10.27-3.22,15.92-3.22,9.06,0,17.43,2.95,24.21,7.93-7.46,10-19.39,16.48-32.83,16.48-6.51,0-10.35-1.21-10.35-1.15-4.92-1.26-9.49-3.41-13.51-6.28-10.02-7.33-16.6-18.73-17.05-31.6,0,0-.02-1.82-.02-1.89Z"/><circle class="cls-1" cx="150.41" cy="149.15" r="9.69"/></svg>