<svg xmlns="http://www.w3.org/2000/svg" xmlns:xlink="http://www.w3.org/1999/xlink" width="500" zoomAndPan="magnify" viewBox="0 0 375 374.999991" height="500" preserveAspectRatio="xMidYMid meet" version="1.2"><defs><clipPath id="f1804fcf70"><path d="M 168 43.09375 L 293.457031 43.09375 L 293.457031 331.84375 L 168 331.84375 Z M 168 43.09375 "/></clipPath><clipPath id="cb70eb6d7a"><path d="M 78.957031 43.09375 L 187 43.09375 L 187 331.84375 L 78.957031 331.84375 Z M 78.957031 43.09375 "/></clipPath></defs><g id="e9a1c9cd1b"><rect x="0" width="375" y="0" height="374.999991" style="fill:#ffffff;fill-opacity:1;stroke:none;"/><rect x="0" width="375" y="0" height="374.999991" style="fill:#ffffff;fill-opacity:1;stroke:none;"/><g clip-rule="nonzero" clip-path="url(#f1804fcf70)"><path style=" stroke:none;fill-rule:nonzero;fill:#ff5757;fill-opacity:1;" d="M 216.753906 123.007812 L 168.53125 181.121094 L 293.472656 331.722656 L 293.472656 172.800781 L 262.09375 134.992188 L 244.394531 156.324219 L 266.226562 182.632812 L 266.226562 256.210938 L 203.9375 181.121094 L 252.152344 123.007812 L 186.222656 43.550781 L 183.910156 66.199219 L 186.222656 86.21875 L 216.753906 123.007812 "/></g><g clip-rule="nonzero" clip-path="url(#cb70eb6d7a)"><path style=" stroke:none;fill-rule:nonzero;fill:#ed4648;fill-opacity:1;" d="M 176.292969 214.4375 L 158.59375 193.101562 L 106.21875 256.226562 L 106.21875 182.640625 L 186.222656 86.21875 L 186.222656 43.550781 L 78.972656 172.808594 L 78.972656 331.730469 L 176.292969 214.4375 "/></g></g></svg>